<svg id="Capa_1" enable-background="new 0 0 512 512" height="512" viewBox="0 0 512 512" width="512" xmlns="http://www.w3.org/2000/svg" xmlns:xlink="http://www.w3.org/1999/xlink"><linearGradient id="SVGID_1_" gradientUnits="userSpaceOnUse" x1="256" x2="256" y1="496" y2="16"><stop offset="0" stop-color="#fd3a84"/><stop offset="1" stop-color="#ffa68d"/></linearGradient><g><g><path d="m420.964 183.81c.016-.936.036-1.87.036-2.81 0-90.981-74.019-165-165-165s-165 74.019-165 165c0 .939.02 1.874.036 2.81-53.97 27.267-91.036 83.004-91.036 147.19 0 90.981 74.468 165 166 165 33.181 0 64.099-9.854 90-26.775 25.901 16.921 56.819 26.775 90 26.775 91.532 0 166-74.019 166-165 0-64.186-37.066-119.923-91.036-147.19zm-164.964-137.81c71.443 0 130.091 55.785 134.698 126.083-14.227-3.959-29.217-6.083-44.698-6.083-33.181 0-64.099 9.854-90 26.775-25.901-16.921-56.819-26.775-90-26.775-15.481 0-30.471 2.124-44.698 6.083 4.607-70.298 63.255-126.083 134.698-126.083zm0 184.47c22.398 20.073 38.07 47.501 43.184 78.448-13.565 4.591-28.089 7.082-43.184 7.082s-29.619-2.491-43.184-7.083c5.114-30.946 20.786-58.374 43.184-78.447zm-71.177 65.191c-32.356-20.158-55.598-53.619-62.023-92.676 13.578-4.527 28.105-6.985 43.2-6.985 23.574 0 45.751 6.08 65.059 16.745-22.779 22.146-39.199 50.793-46.236 82.916zm96.118-82.916c19.308-10.665 41.485-16.745 65.059-16.745 15.095 0 29.622 2.458 43.2 6.985-6.425 39.057-29.667 72.518-62.023 92.676-7.037-32.123-23.457-60.77-46.236-82.916zm-114.941 253.255c-74.99 0-136-60.561-136-135 0-48.528 25.933-91.151 64.76-114.949 10.61 48.851 42.909 89.705 86.279 111.916-.019 1.01-.039 2.019-.039 3.033 0 46.332 19.203 88.256 50.059 118.255-19.308 10.665-41.485 16.745-65.059 16.745zm90-34.47c-25.545-22.894-42.341-55.353-44.703-91.688 14.223 4.009 29.216 6.158 44.703 6.158s30.48-2.149 44.703-6.157c-2.362 36.335-19.158 68.794-44.703 91.687zm90 34.47c-23.574 0-45.751-6.08-65.059-16.745 30.856-29.999 50.059-71.923 50.059-118.255 0-1.014-.02-2.023-.039-3.033 43.37-22.211 75.669-63.065 86.279-111.916 38.827 23.798 64.76 66.421 64.76 114.949 0 74.439-61.01 135-136 135z" fill="url(#SVGID_1_)"/></g></g></svg>