<?xml version="1.0" encoding="iso-8859-1"?>
<!-- Generator: Adobe Illustrator 19.0.0, SVG Export Plug-In . SVG Version: 6.00 Build 0)  -->
<svg version="1.1" id="Capa_1" xmlns="http://www.w3.org/2000/svg" xmlns:xlink="http://www.w3.org/1999/xlink" x="0px" y="0px"
	 viewBox="0 0 512 512" style="enable-background:new 0 0 512 512;" xml:space="preserve">
<linearGradient id="SVGID_1_" gradientUnits="userSpaceOnUse" x1="0" y1="258" x2="512" y2="258" gradientTransform="matrix(1 0 0 -1 0 514)">
	<stop  offset="0" style="stop-color:#00F2FE"/>
	<stop  offset="0.021" style="stop-color:#03EFFE"/>
	<stop  offset="0.293" style="stop-color:#24D2FE"/>
	<stop  offset="0.554" style="stop-color:#3CBDFE"/>
	<stop  offset="0.796" style="stop-color:#4AB0FE"/>
	<stop  offset="1" style="stop-color:#4FACFE"/>
</linearGradient>
<path style="fill:url(#SVGID_1_);" d="M492,254c11.046,0,20-8.954,20-20v-55.927c0-22.899-12.729-43.473-33.222-53.693
	c-20.49-10.22-44.585-8.011-62.875,5.766l-0.522,0.393L354,183.388V159c0-44.112-35.888-80-80-80H80c-44.112,0-80,35.888-80,80v194
	c0,44.112,35.888,80,80,80h194c44.112,0,80-35.888,80-80v-23.388l60.886,52.423l1.018,0.819c10.662,8.03,23.291,12.13,36.033,12.13
	c9.118,0,18.295-2.101,26.842-6.364C499.271,378.4,512,357.826,512,334.927c0-11.046-8.954-20-20-20s-20,8.954-20,20
	c0,7.749-4.14,14.439-11.073,17.897c-6.772,3.377-14.401,2.771-20.518-1.599L354,276.828v-40.656l86.409-74.398
	c6.118-4.369,13.745-4.976,20.518-1.599C467.86,163.633,472,170.324,472,178.073V234C472,245.046,480.954,254,492,254z M274,393H80
	c-22.056,0-40-17.944-40-40V159c0-22.056,17.944-40,40-40h194c22.056,0,40,17.944,40,40l0,0c0,0.038,0-0.038,0,0v194
	c0,0.038,0-0.038,0,0l0,0C314,375.056,296.056,393,274,393z"/>
<g>
</g>
<g>
</g>
<g>
</g>
<g>
</g>
<g>
</g>
<g>
</g>
<g>
</g>
<g>
</g>
<g>
</g>
<g>
</g>
<g>
</g>
<g>
</g>
<g>
</g>
<g>
</g>
<g>
</g>
</svg>
